<?xml version="1.0" encoding="UTF-8"?>
<svg width="180px" height="60px" viewBox="0 0 180 60" version="1.1" xmlns="http://www.w3.org/2000/svg" xmlns:xlink="http://www.w3.org/1999/xlink">
    <title>CD720A04-7D55-40CD-8FBC-92AFFAC9F938</title>
    <g id="Page-1" stroke="none" stroke-width="1" fill="none" fill-rule="evenodd">
        <g id="landing-page" transform="translate(-300.000000, -664.000000)" fill-rule="nonzero">
            <g id="App-Store-Badge-US-Black" transform="translate(300.000000, 664.000000)">
                <path d="M165.202155,-0.000195 L14.30202,-0.000195 C13.75197,-0.000195 13.20852,-0.000195 12.659925,0.003 C12.2007,0.006 11.745135,0.014715 11.2815,0.02205 C10.2742705,0.0339027054 9.26940971,0.12251439 8.27565,0.287115 C7.28328612,0.455298942 6.32200878,0.77237361 5.42433,1.227615 C4.52774912,1.68670757 3.70851753,2.28325129 2.996355,2.995605 C2.28045375,3.70595549 1.68369477,4.52702457 1.229025,5.42724 C0.773100362,6.32566368 0.456960747,7.28840744 0.291525,8.28222 C0.124516412,9.27477736 0.034647571,10.2787808 0.022725,11.28522 C0.008805,11.74512 0.007335,12.20655 0,12.66651 L0,47.3379 C0.007335,47.80365 0.008805,48.25485 0.022725,48.72075 C0.0346512271,49.7271393 0.124520069,50.7310926 0.291525,51.7236 C0.456503929,52.7179935 0.772662237,53.68129 1.229025,54.58005 C1.68348833,55.4773543 2.28033122,56.2950993 2.996355,57.0015 C3.70581723,57.7170211 4.52557835,58.3139706 5.42433,58.76955 C6.32200196,59.2260098 7.28317567,59.5449718 8.27565,59.71575 C9.26957864,59.8790321 10.2743361,59.9676798 11.2815,59.98095 C11.745135,59.99115 12.2007,59.997 12.659925,59.997 C13.208505,60 13.752,60 14.30202,60 L165.202155,60 C165.741255,60 166.289055,60 166.828155,59.997 C167.285205,59.997 167.753955,59.99115 168.211005,59.98095 C169.216265,59.9683856 170.219131,59.8797322 171.211005,59.71575 C172.206681,59.5437696 173.171301,59.2248921 174.073305,58.76955 C174.971246,58.3137069 175.79025,57.7167736 176.499105,57.0015 C177.213281,56.2923327 177.811399,55.4751859 178.271505,54.58005 C178.724443,53.6806361 179.037592,52.7174167 179.200155,51.7236 C179.367427,50.7309564 179.460485,49.7272264 179.478555,48.72075 C179.484405,48.25485 179.484405,47.80365 179.484405,47.3379 C179.496105,46.79295 179.496105,46.251 179.496105,45.6972 L179.496105,14.304195 C179.496105,13.75488 179.496105,13.20996 179.484405,12.66651 C179.484405,12.20655 179.484405,11.74512 179.478555,11.28516 C179.460489,10.2786337 179.367431,9.27485351 179.200155,8.28216 C179.037139,7.2889224 178.724009,6.32625492 178.271505,5.42718 C177.345591,3.62279412 175.87736,2.1540381 174.073305,1.22748 C173.171298,0.77335107 172.206575,0.456360615 171.211005,0.28698 C170.219302,0.121654175 169.216332,0.0330116473 168.211005,0.02184 C167.753955,0.01452 167.285205,0.00573 166.828155,0.002805 C166.289055,-0.000195 165.741255,-0.000195 165.202155,-0.000195 L165.202155,-0.000195 Z" id="Background-Gray" fill="#A6A6A6"></path>
                <path d="M12.667245,58.6875 C12.210225,58.6875 11.764245,58.68165 11.31081,58.67145 C10.3714827,58.6592111 9.43435076,58.5774376 8.5071,58.4268 C7.64248545,58.2778922 6.80490637,58.0008967 6.02199,57.60495 C5.24625256,57.212284 4.53871765,56.6974093 3.92649,56.08005 C3.30540049,55.4699629 2.7883151,54.7623659 2.395725,53.9853 C1.99880889,53.2031837 1.72411932,52.3648494 1.581225,51.4995 C1.42691154,50.5696723 1.34342156,49.6294699 1.331475,48.687 C1.321965,48.37065 1.309515,47.31735 1.309515,47.31735 L1.309515,12.66651 C1.309515,12.66651 1.322775,11.629395 1.33155,11.3247 C1.34298874,10.3837231 1.42599322,9.44497965 1.579845,8.516595 C1.72300309,7.64887512 1.99790531,6.8081233 2.395035,6.023445 C2.78618224,5.24691577 3.30039687,4.53879044 3.917745,3.92652 C4.53439924,3.30843213 5.24419742,2.79090618 6.021255,2.392815 C6.802372,1.9981404 7.63836817,1.72309882 8.501235,1.576905 C9.431531,1.42475421 10.3719163,1.34249413 11.3145,1.330815 L12.66798,1.3125 L166.820805,1.3125 L168.190455,1.33155 C169.124465,1.3426488 170.056308,1.42417501 170.978055,1.575435 C171.849657,1.7234626 172.694366,2.0004233 173.484405,2.39721 C175.041133,3.19947907 176.307812,4.46874442 177.106905,6.027105 C177.497696,6.80636635 177.768358,7.64026013 177.909705,8.500485 C178.065389,9.43648707 178.15252,10.3826075 178.170405,11.3313 C178.174755,11.7561 178.174755,12.2124 178.174755,12.66651 C178.186605,13.22901 178.186605,13.764405 178.186605,14.304195 L178.186605,45.6972 C178.186605,46.24215 178.186605,46.7739 178.174755,47.31 C178.174755,47.7978 178.174755,48.24465 178.168905,48.70455 C178.151408,49.6363135 178.065729,50.5655464 177.912555,51.4848 C177.77259,52.3563917 177.499396,53.2012697 177.102555,53.9898 C176.70719,54.7584317 176.193074,55.4598993 175.579155,56.06835 C174.966377,56.689027 174.257593,57.206914 173.480055,57.6021 C172.692204,58.0010905 171.848739,58.2791104 170.978055,58.4268 C170.050874,58.5782415 169.113653,58.6600202 168.174255,58.67145 C167.734905,58.68165 167.274855,58.6875 166.828155,58.6875 L165.202155,58.6905 L12.667245,58.6875 Z" id="Background-Black" fill="#000000"></path>
                <path d="M63.453405,40.709475 L56.353305,40.709475 L54.648225,45.74415 L51.640905,45.74415 L58.366005,27.11715 L61.490505,27.11715 L68.215605,45.74415 L65.157,45.74415 L63.453405,40.709475 Z M57.08865,38.38623 L62.71665,38.38623 L59.942235,30.215325 L59.864595,30.215325 L57.08865,38.38623 Z M82.739535,38.954595 C82.739535,43.174815 80.480745,45.88623 77.072055,45.88623 C75.3101329,45.9783969 73.6504986,45.055546 72.79911,43.51023 L72.73461,43.51023 L72.73461,50.2368 L69.94701,50.2368 L69.94701,32.16357 L72.6453,32.16357 L72.6453,34.42236 L72.69657,34.42236 C73.5857825,32.8867319 75.2472064,31.9642783 77.020785,32.021475 C80.4675,32.02149 82.739535,34.74609 82.739535,38.954595 Z M79.874295,38.954595 C79.874295,36.205095 78.45339,34.39746 76.285425,34.39746 C74.155545,34.39746 72.722925,36.243165 72.722925,38.954595 C72.722925,41.690925 74.155545,43.523445 76.285425,43.523445 C78.453405,43.523445 79.874295,41.72901 79.874295,38.954595 Z M97.686795,38.954595 C97.686795,43.174815 95.428005,45.88623 92.019315,45.88623 C90.2573929,45.9783969 88.5977586,45.055546 87.74637,43.51023 L87.68187,43.51023 L87.68187,50.2368 L84.89427,50.2368 L84.89427,32.16357 L87.5925,32.16357 L87.5925,34.42236 L87.64377,34.42236 C88.5329889,32.8867328 90.1944192,31.9642846 91.968,32.02149 C95.41482,32.02149 97.686795,34.74609 97.686795,38.954595 Z M94.82157,38.954595 C94.82157,36.205095 93.40065,34.39746 91.232685,34.39746 C89.102805,34.39746 87.670185,36.243165 87.670185,38.954595 C87.670185,41.690925 89.102805,43.523445 91.232685,43.523445 C93.400665,43.523445 94.82157,41.72901 94.82157,38.954595 L94.82157,38.954595 Z M107.565705,40.554195 C107.772255,42.40137 109.566705,43.614195 112.01883,43.614195 C114.368445,43.614195 116.05887,42.40131 116.05887,40.73577 C116.05887,39.289965 115.039335,38.42427 112.62528,37.83099 L110.211225,37.24944 C106.79082,36.42327 105.20292,34.823655 105.20292,32.22795 C105.20292,29.01408 108.003705,26.80656 111.980745,26.80656 C115.916745,26.80656 118.61502,29.01408 118.705845,32.22795 L115.891845,32.22795 C115.723395,30.36906 114.186765,29.247 111.94116,29.247 C109.695555,29.247 108.15894,30.38226 108.15894,32.0346 C108.15894,33.351495 109.14039,34.126395 111.54126,34.7196 L113.5935,35.22351 C117.415275,36.12732 119.003175,37.66251 119.003175,40.38708 C119.003175,43.87194 116.22729,46.05456 111.81225,46.05456 C107.681385,46.05456 104.89233,43.92321 104.71215,40.55406 L107.565705,40.554195 Z M125.019315,28.9497 L125.019315,32.16357 L127.601835,32.16357 L127.601835,34.37109 L125.019315,34.37109 L125.019315,41.857905 C125.019315,43.02099 125.53641,43.562985 126.671655,43.562985 C126.978242,43.5576389 127.284333,43.536109 127.58865,43.498485 L127.58865,45.69282 C127.078242,45.7881893 126.559456,45.8313817 126.040305,45.82173 C123.290805,45.82173 122.21853,44.78901 122.21853,42.15522 L122.21853,34.37109 L120.24393,34.37109 L120.24393,32.16357 L122.2185,32.16357 L122.2185,28.9497 L125.019315,28.9497 Z M129.0975,38.954595 C129.0975,34.68165 131.614095,31.99659 135.538425,31.99659 C139.475925,31.99659 141.980805,34.68159 141.980805,38.954595 C141.980805,43.23927 139.48911,45.9126 135.538425,45.9126 C131.589135,45.9126 129.0975,43.239255 129.0975,38.954595 Z M139.140465,38.954595 C139.140465,36.023445 137.7972,34.293465 135.53841,34.293465 C133.27962,34.293465 131.937825,36.03663 131.937825,38.954595 C131.937825,41.89746 133.27962,43.61427 135.53841,43.61427 C137.7972,43.61427 139.140465,41.89746 139.140465,38.954595 L139.140465,38.954595 Z M144.279075,32.16357 L146.93778,32.16357 L146.93778,34.47507 L147.00228,34.47507 C147.373044,32.9870526 148.736479,31.9629473 150.268875,32.02146 C150.590121,32.0203383 150.910481,32.0552261 151.223955,32.12547 L151.223955,34.73289 C150.818401,34.608965 150.395339,34.5520669 149.971455,34.56444 C149.151927,34.5311932 148.358806,34.8578021 147.800342,35.458509 C147.241878,36.0592158 146.973865,36.8740061 147.066675,37.68894 L147.066675,45.74412 L144.279075,45.74412 L144.279075,32.16357 Z M164.07645,41.755365 C163.70145,44.22069 161.300565,45.912585 158.22879,45.912585 C154.278105,45.912585 151.825965,43.26561 151.825965,39.019035 C151.825965,34.759275 154.29129,31.996575 158.11161,31.996575 C161.86893,31.996575 164.23173,34.577625 164.23173,38.695305 L164.23173,39.650385 L154.639935,39.650385 L154.639935,39.818835 C154.550381,40.8298824 154.899497,41.8306792 155.59848,42.5666549 C156.297462,43.3026306 157.278941,43.7028499 158.29326,43.66551 C159.646023,43.7922594 160.921415,43.0154665 161.42949,41.75535 L164.07645,41.755365 Z M154.653094,37.702155 L161.44266,37.702155 C161.493248,36.7936462 161.162545,35.9052346 160.530225,35.2509473 C159.897905,34.59666 159.021301,34.2358206 158.11161,34.255365 C157.194723,34.2498933 156.313636,34.6109019 155.664188,35.2581499 C155.01474,35.9053978 154.650744,36.7852544 154.653094,37.702155 L154.653094,37.702155 Z" id="App-Store" fill="#FFFFFF"></path>
                <path d="M56.739285,13.0965 C57.9227048,13.0115763 59.0818384,13.4618211 59.8976419,14.3233077 C60.7134455,15.1847943 61.0999288,16.3667172 60.950715,17.54376 C60.950715,20.403135 59.40531,22.04676 56.739285,22.04676 L53.50638,22.04676 L53.50638,13.0965 L56.739285,13.0965 Z M54.896505,20.781 L56.584005,20.781 C57.4297379,20.831553 58.2532298,20.4983385 58.8258278,19.8738777 C59.3984258,19.2494169 59.6591694,18.4001916 59.53566,17.562 C59.6501835,16.7272868 59.3856849,15.8850693 58.8145066,15.265701 C58.2433284,14.6463326 57.4252435,14.3146294 56.584005,14.361315 L54.896505,14.361315 L54.896505,20.781 Z M62.52102,18.66651 C62.4052007,17.4558376 62.9857255,16.2841679 64.0191239,15.6428961 C65.0525223,15.0016242 66.3601227,15.0016242 67.3935211,15.6428961 C68.4269195,16.2841679 69.0074443,17.4558376 68.891625,18.66651 C69.0096479,19.8784834 68.429653,21.0524256 67.3953383,21.695078 C66.3610236,22.3377303 65.0516214,22.3377303 64.0173067,21.695078 C62.982992,21.0524256 62.4029971,19.8784834 62.52102,18.66651 Z M67.520535,18.66651 C67.520535,17.202405 66.8628,16.346205 65.70852,16.346205 C64.54983,16.346205 63.89802,17.202405 63.89802,18.666525 C63.89802,20.14236 64.549875,20.99196 65.70852,20.99196 C66.86283,20.99196 67.520535,20.13648 67.520535,18.66651 L67.520535,18.66651 Z M77.35989,22.046625 L75.977085,22.046625 L74.581095,17.07201 L74.47563,17.07201 L73.08549,22.046625 L71.715855,22.046625 L69.85404,15.29223 L71.206095,15.29223 L72.416055,20.44623 L72.51567,20.44623 L73.90434,15.29223 L75.18315,15.29223 L76.57182,20.44623 L76.677285,20.44623 L77.88138,15.29223 L79.214385,15.29223 L77.35989,22.046625 Z M80.780295,15.29223 L82.0635,15.29223 L82.0635,16.365225 L82.163115,16.365225 C82.5095173,15.5752169 83.3189593,15.0919612 84.17874,15.16185 C84.8444652,15.1117977 85.4968288,15.3671849 85.9516362,15.8559031 C86.4064435,16.3446214 86.6143396,17.0136356 86.516625,17.67405 L86.516625,22.04655 L85.18362,22.04655 L85.18362,18.00879 C85.18362,16.923345 84.711945,16.38354 83.7261,16.38354 C83.2745488,16.3625087 82.8363303,16.5397239 82.5263319,16.8687252 C82.2163336,17.1977265 82.0654726,17.6457015 82.1133,18.095205 L82.1133,22.046625 L80.780295,22.046625 L80.780295,15.29223 Z M88.640655,12.6555 L89.97366,12.6555 L89.97366,22.04661 L88.640655,22.04661 L88.640655,12.6555 Z M91.826685,18.66651 C91.7109546,17.4557584 92.291571,16.284059 93.3250461,15.6427773 C94.3585212,15.0014956 95.6661888,15.0014956 96.6996639,15.6427773 C97.733139,16.284059 98.3137554,17.4557584 98.198025,18.66651 C98.315898,19.8785268 97.7357968,21.0524358 96.7014308,21.6950599 C95.6670648,22.3376839 94.3576452,22.3376839 93.3232792,21.6950599 C92.2889132,21.0524358 91.708812,19.8785268 91.826685,18.66651 L91.826685,18.66651 Z M96.8262,18.66651 C96.8262,17.202405 96.168465,16.346205 95.014185,16.346205 C93.855495,16.346205 93.203685,17.202405 93.203685,18.666525 C93.203685,20.14236 93.85554,20.99196 95.014185,20.99196 C96.16848,20.99196 96.8262,20.13648 96.8262,18.66651 L96.8262,18.66651 Z M99.60135,20.13648 C99.60135,18.920655 100.50663,18.219735 102.11355,18.12012 L103.943145,18.014655 L103.943145,17.43165 C103.943145,16.718265 103.47147,16.31544 102.56034,16.31544 C101.816205,16.31544 101.30058,16.588635 101.15262,17.066175 L99.862095,17.066175 C99.998325,15.906015 101.089635,15.16188 102.621855,15.16188 C104.31522,15.16188 105.2703,16.00488 105.2703,17.43165 L105.2703,22.04664 L103.987095,22.04664 L103.987095,21.097425 L103.88163,21.097425 C103.445803,21.7906145 102.67076,22.1957448 101.85282,22.157925 C101.279424,22.2175677 100.707557,22.031866 100.278594,21.6467287 C99.8496307,21.2615913 99.6036091,20.712965 99.60135,20.13648 L99.60135,20.13648 Z M103.943145,19.559325 L103.943145,18.994635 L102.29373,19.1001 C101.36355,19.16235 100.941675,19.47876 100.941675,20.074215 C100.941675,20.68212 101.469015,21.03588 102.194175,21.03588 C102.623454,21.0793348 103.05199,20.9467126 103.381681,20.6683734 C103.711372,20.3900342 103.913987,19.9898116 103.943145,19.559325 Z M107.02224,18.66651 C107.02224,16.532235 108.119415,15.18018 109.82595,15.18018 C110.687665,15.1404752 111.494741,15.6022093 111.89724,16.36518 L111.996855,16.36518 L111.996855,12.6555 L113.32986,12.6555 L113.32986,22.04661 L112.05252,22.04661 L112.05252,20.979465 L111.947055,20.979465 C111.514131,21.7361055 110.697112,22.1900347 109.825965,22.157925 C108.1077,22.158 107.02224,20.805915 107.02224,18.66651 Z M108.39924,18.66651 C108.39924,20.09913 109.07454,20.961195 110.203935,20.961195 C111.327435,20.961195 112.0218,20.086695 112.0218,18.672375 C112.0218,17.264655 111.320145,16.37769 110.203935,16.37769 C109.081815,16.37769 108.399195,17.245605 108.399195,18.66651 L108.39924,18.66651 Z M118.845,18.66651 C118.729181,17.4558376 119.309705,16.2841679 120.343104,15.6428961 C121.376502,15.0016242 122.684103,15.0016242 123.717501,15.6428961 C124.7509,16.2841679 125.331424,17.4558376 125.215605,18.66651 C125.333628,19.8784834 124.753633,21.0524256 123.719318,21.695078 C122.685004,22.3377303 121.375601,22.3377303 120.341287,21.695078 C119.306972,21.0524256 118.726977,19.8784834 118.845,18.66651 L118.845,18.66651 Z M123.8445,18.66651 C123.8445,17.202405 123.18678,16.346205 122.0325,16.346205 C120.87381,16.346205 120.222,17.202405 120.222,18.666525 C120.222,20.14236 120.873855,20.99196 122.0325,20.99196 C123.186795,20.99196 123.8445,20.13648 123.8445,18.66651 Z M127.004175,15.29223 L128.28738,15.29223 L128.28738,16.365225 L128.386995,16.365225 C128.733397,15.5752169 129.542839,15.0919612 130.40262,15.16185 C131.068345,15.1117977 131.720709,15.3671849 132.175516,15.8559031 C132.630324,16.3446214 132.83822,17.0136356 132.740505,17.67405 L132.740505,22.04655 L131.4075,22.04655 L131.4075,18.00879 C131.4075,16.923345 130.935825,16.38354 129.94998,16.38354 C129.498429,16.3625087 129.06021,16.5397239 128.750212,16.8687252 C128.440214,17.1977265 128.289353,17.6457015 128.33718,18.095205 L128.33718,22.046625 L127.004175,22.046625 L127.004175,15.29223 Z M140.27274,13.610595 L140.27274,15.322995 L141.736125,15.322995 L141.736125,16.445805 L140.27274,16.445805 L140.27274,19.91895 C140.27274,20.62647 140.56425,20.93628 141.22782,20.93628 C141.397703,20.9357363 141.567416,20.9254645 141.736125,20.905515 L141.736125,22.01586 C141.496739,22.0586861 141.254198,22.0814701 141.011025,22.083975 C139.528605,22.083975 138.938265,21.562485 138.938265,20.260245 L138.938265,16.445745 L137.866005,16.445745 L137.866005,15.322935 L138.938265,15.322935 L138.938265,13.610595 L140.27274,13.610595 Z M143.556915,12.6555 L144.878205,12.6555 L144.878205,16.377675 L144.98367,16.377675 C145.346712,15.5807528 146.17032,15.0968813 147.04317,15.167715 C147.705115,15.1316959 148.348647,15.3927056 148.798484,15.8796508 C149.24832,16.366596 149.457607,17.0287585 149.36934,17.68578 L149.36934,22.046625 L148.035,22.046625 L148.035,18.014625 C148.035,16.935765 147.5325,16.389375 146.590665,16.389375 C146.126908,16.3513405 145.670009,16.5199364 145.342113,16.8500903 C145.014218,17.1802441 144.848763,17.6382905 144.88998,18.101775 L144.88998,22.046625 L143.556975,22.046625 L143.556915,12.6555 Z M157.141875,20.222895 C156.768086,21.4969642 155.535148,22.3201546 154.21512,22.17699 C153.314466,22.2007653 152.448887,21.827446 151.848042,21.1560827 C151.247198,20.4847194 150.97183,19.5831839 151.095,18.690675 C150.975101,17.7956857 151.249437,16.8927056 151.846936,16.2156704 C152.444435,15.5386353 153.306303,15.1541651 154.209255,15.161865 C156.08865,15.161865 157.22244,16.445865 157.22244,18.566865 L157.22244,19.032 L152.452905,19.032 L152.452905,19.1067 C152.410698,19.6079102 152.581876,20.1036716 152.924341,20.472061 C153.266806,20.8404505 153.748782,21.0472859 154.251735,21.0417 C154.903893,21.119992 155.538724,20.7964996 155.85867,20.22285 L157.141875,20.222895 Z M152.452875,18.04614 L155.86449,18.04614 C155.898469,17.5877407 155.737288,17.1363076 155.420665,16.8030886 C155.104043,16.4698697 154.661426,16.2858543 154.20189,16.29639 C153.736128,16.2905384 153.287742,16.4730319 152.958445,16.8024733 C152.629147,17.1319148 152.44685,17.5803806 152.452905,18.04614 L152.452875,18.04614 Z" id="Download-on-the" fill="#FFFFFF"></path>
                <path d="M37.15332,30.45102 C37.1861055,27.9063137 38.5201844,25.5557792 40.68816,24.22293 C39.3142689,22.2607692 37.0955881,21.0613175 34.70142,20.98641 C32.18256,20.72202 29.740635,22.493655 28.45707,22.493655 C27.148665,22.493655 25.172415,21.01266 23.04432,21.056445 C20.2443019,21.1469076 17.6972058,22.7002882 16.33494,25.14825 C13.43394,30.17088 15.597825,37.552455 18.37674,41.61237 C19.76709,43.600395 21.39201,45.82107 23.518185,45.74232 C25.598775,45.656025 26.375835,44.4156 28.887285,44.4156 C31.375425,44.4156 32.10447,45.74232 34.273785,45.69225 C36.506355,45.65601 37.91298,43.69539 39.25455,41.68854 C40.2535142,40.2719996 41.0222155,38.7064139 41.53218,37.049775 C38.8805649,35.9282719 37.1564149,33.3300515 37.15332,30.45102 L37.15332,30.45102 Z M33.055875,18.316335 C34.2731649,16.8550229 34.8728774,14.9767537 34.727655,13.080405 C32.8679067,13.2757357 31.1500203,14.1645745 29.916285,15.56982 C28.6980281,16.9562835 28.0808619,18.770149 28.20072,20.611905 C30.0854052,20.6313101 31.8748741,19.7852298 33.055875,18.316335 L33.055875,18.316335 Z" id="Icon" fill="#FFFFFF"></path>
            </g>
        </g>
    </g>
</svg>