<?xml version="1.0" encoding="UTF-8"?>
<svg width="44px" height="59px" viewBox="0 0 44 59" version="1.1" xmlns="http://www.w3.org/2000/svg" xmlns:xlink="http://www.w3.org/1999/xlink">
    <title>7AA9D542-C5D4-472E-8B7B-AD633B511C7F</title>
    <g id="Page-1" stroke="none" stroke-width="1" fill="none" fill-rule="evenodd">
        <g id="landing-page" transform="translate(-503.000000, -3371.000000)" fill="#164F77" fill-rule="nonzero">
            <path d="M524.75,3371.97222 C512.7585,3371.97222 503,3381.79839 503,3393.87931 C503,3411.04489 522.7055,3428.76872 523.544083,3429.51306 C523.889667,3429.81997 524.319833,3429.97222 524.75,3429.97222 C525.180167,3429.97222 525.610333,3429.81997 525.955917,3429.51547 C526.7945,3428.76872 546.5,3411.04489 546.5,3393.87931 C546.5,3381.79839 536.7415,3371.97222 524.75,3371.97222 Z M524.75,3405.80556 C518.08725,3405.80556 512.666667,3400.38497 512.666667,3393.72222 C512.666667,3387.05947 518.08725,3381.63889 524.75,3381.63889 C531.41275,3381.63889 536.833333,3387.05947 536.833333,3393.72222 C536.833333,3400.38497 531.41275,3405.80556 524.75,3405.80556 Z" id="Shape"></path>
        </g>
    </g>
</svg>