<?xml version="1.0" encoding="UTF-8"?>
<svg width="53px" height="59px" viewBox="0 0 53 59" version="1.1" xmlns="http://www.w3.org/2000/svg" xmlns:xlink="http://www.w3.org/1999/xlink">
    <title>A1C985AB-00E4-4A74-AF49-518AD3C5D62B</title>
    <g id="Page-1" stroke="none" stroke-width="1" fill="none" fill-rule="evenodd">
        <g id="landing-page" transform="translate(-924.000000, -3371.000000)">
            <g id="25489" transform="translate(950.500000, 3400.972222) scale(-1, 1) translate(-950.500000, -3400.972222) translate(924.000000, 3371.972222)">
                <path d="M13.5336898,37.4593917 C11.8928142,36.024766 9.40056818,36.1922126 7.96483957,37.8323864 L1.03846925,45.7549131 C-0.395955882,47.3956885 -0.228709893,49.8880348 1.41206551,51.3224599 L6.19782754,55.5083222 C8.79485294,57.490107 11.1304813,57.2154746 11.1698864,57.2108623 C12.1591243,57.0274733 14.1343917,57.3865307 15.5785428,56.9290107 C21.210762,55.1440508 29.3140709,51.5424465 38.5449866,40.9854947 C47.7756016,30.428643 50.7895388,21.307119 52.2437166,14.9889706 C52.6956217,13.0223262 52.1956885,10.7522727 52.3212233,9.55748663 C52.3232286,9.51798128 52.4013369,7.20391043 50.3963904,5.45013369 C50.2480949,5.32129011 50.1385027,5.20768717 50.0545789,5.10551471 L46.737734,2.14100936 L45.3627674,1.04889706 C43.721992,-0.385427807 41.2288436,-0.217881016 39.7941176,1.42289439 L32.8676471,9.34461898 C31.4331217,10.9851939 31.5995655,13.4779412 33.2406417,14.9134693 L39.2082553,20.1307821 C36.9224599,24.6583556 34.4549799,28.849131 30.2141711,33.6985628 C26.517012,37.9285428 23.3986965,40.4550802 19.8482286,42.9808155 L13.5336898,37.4593917" id="Fill-3" fill="#1B5C8C"></path>
                <path d="M5.44772727,54.8521725 L6.19782754,55.5083222 C8.79485294,57.490107 11.1304813,57.2154746 11.1698864,57.2108623 C12.1591243,57.0274733 14.1343917,57.3865307 15.5785428,56.9290107 C21.210762,55.1440508 29.3141711,51.5424465 38.5449866,40.9854947 C47.7756016,30.428643 50.7895388,21.307119 52.2436163,14.9889706 C52.6956217,13.0223262 52.1956885,10.7522727 52.3212233,9.55748663 C52.3221257,9.54034091 52.3370655,9.09114305 52.188369,8.44512032 C49.5230615,34.6111965 25.7528743,49.2039104 5.44772727,54.8521725" id="Fill-4" fill="#124C77"></path>
                <path d="M41.1953543,2.17259358 L37.0757687,6.87623663 C38.9495655,4.98800134 43.7173797,1.48355615 49.7294118,6.74899733 L44.2716578,1.9690508 C43.3696524,1.17904412 41.985361,1.2706885 41.1953543,2.17259358" id="Fill-5" fill="#2771A7"></path>
                <path d="M9.43877005,38.9488636 L5.31918449,43.6524064 C7.19298128,41.7641711 11.9607955,38.2597259 17.9728275,43.5252674 L12.5150735,38.7452206 C11.6130682,37.9552139 10.2287767,38.0468583 9.43877005,38.9488636" id="Fill-6" fill="#2771A7"></path>
            </g>
        </g>
    </g>
</svg>