<?xml version="1.0" encoding="UTF-8"?>
<svg width="203px" height="60px" viewBox="0 0 203 60" version="1.1" xmlns="http://www.w3.org/2000/svg" xmlns:xlink="http://www.w3.org/1999/xlink">
    <title>A516BD34-9772-4A57-904A-87B1D8B01DD2</title>
    <defs>
        <linearGradient x1="61.0339412%" y1="4.9481245%" x2="26.5026568%" y2="71.9074222%" id="linearGradient-1">
            <stop stop-color="#00A0FF" offset="0%"></stop>
            <stop stop-color="#00A1FF" offset="1%"></stop>
            <stop stop-color="#00BEFF" offset="26%"></stop>
            <stop stop-color="#00D2FF" offset="51%"></stop>
            <stop stop-color="#00DFFF" offset="76%"></stop>
            <stop stop-color="#00E3FF" offset="100%"></stop>
        </linearGradient>
        <linearGradient x1="107.684729%" y1="50%" x2="-130.640394%" y2="50%" id="linearGradient-2">
            <stop stop-color="#FFE000" offset="0%"></stop>
            <stop stop-color="#FFBD00" offset="41%"></stop>
            <stop stop-color="#FFA500" offset="78%"></stop>
            <stop stop-color="#FF9C00" offset="100%"></stop>
        </linearGradient>
        <linearGradient x1="86.219293%" y1="30.9112842%" x2="-50.1497903%" y2="135.987548%" id="linearGradient-3">
            <stop stop-color="#FF3A44" offset="0%"></stop>
            <stop stop-color="#C31162" offset="100%"></stop>
        </linearGradient>
        <linearGradient x1="-18.7537448%" y1="-11.831554%" x2="42.1210306%" y2="35.0948125%" id="linearGradient-4">
            <stop stop-color="#32A071" offset="0%"></stop>
            <stop stop-color="#2DA771" offset="7%"></stop>
            <stop stop-color="#15CF74" offset="48%"></stop>
            <stop stop-color="#06E775" offset="80%"></stop>
            <stop stop-color="#00F076" offset="100%"></stop>
        </linearGradient>
    </defs>
    <g id="Page-1" stroke="none" stroke-width="1" fill="none" fill-rule="evenodd">
        <g id="landing-page" transform="translate(-530.000000, -664.000000)" fill-rule="nonzero">
            <g id="Group-3" transform="translate(300.000000, 664.000000)">
                <g id="Google-Play-Badge-US" transform="translate(230.000000, 0.000000)">
                    <rect id="Background-Black" fill="#000000" x="0" y="0" width="202.5" height="60" rx="7.5"></rect>
                    <path d="M195,1.2 C198.479394,1.2 201.3,4.02060608 201.3,7.5 L201.3,52.5 C201.3,55.9793939 198.479394,58.8 195,58.8 L7.5,58.8 C4.02060608,58.8 1.2,55.9793939 1.2,52.5 L1.2,7.5 C1.2,4.02060608 4.02060608,1.2 7.5,1.2 L195,1.2 L195,1.2 Z M195,0 L7.5,0 C3.35786438,0 0,3.35786438 0,7.5 L0,52.5 C0,56.6421356 3.35786438,60 7.5,60 L195,60 C199.142136,60 202.5,56.6421356 202.5,52.5 L202.5,7.5 C202.5,3.35786438 199.142136,0 195,0 Z" id="Border-Gray" fill="#A6A6A6"></path>
                    <path d="M102.21,32.625 C98.6931375,32.6415501 95.8540108,35.5030217 95.8649993,39.0199059 C95.8760518,42.5367901 98.7330558,45.3804124 102.249953,45.3749296 C105.76685,45.3694309 108.614961,42.5169015 108.615,39 C108.639709,37.2965607 107.971847,35.6560646 106.764383,34.4542555 C105.556918,33.2524464 103.913305,32.5922935 102.21,32.625 L102.21,32.625 Z M102.21,42.87 C100.624841,42.9808579 99.1330094,42.1114702 98.448032,40.6776556 C97.7630545,39.243841 98.0241538,37.5370242 99.1064488,36.373557 C100.188744,35.2100899 101.872257,34.8264486 103.351782,35.4061246 C104.831307,35.9858006 105.806128,37.4109741 105.81,39 C105.858814,39.9940078 105.504049,40.9655892 104.826211,41.6942656 C104.148372,42.422942 103.204938,42.8469246 102.21,42.87 L102.21,42.87 Z M88.245,32.625 C84.7261492,32.6332797 81.8794913,35.4911203 81.8849998,39.0099765 C81.8905244,42.5288327 84.7461288,45.3777338 88.2649882,45.3749824 C91.7838477,45.372227 94.6349903,42.5188605 94.635,39 C94.6597095,37.2965607 93.9918474,35.6560646 92.7843827,34.4542555 C91.576918,33.2524464 89.9333046,32.5922935 88.23,32.625 L88.245,32.625 Z M88.245,42.87 C86.6590136,42.9871096 85.1628323,42.1220569 84.4730276,40.6891449 C83.7832229,39.2562329 84.0402341,37.5471923 85.1209701,36.3805401 C86.201706,35.2138879 87.8861363,34.8271464 89.3675308,35.405539 C90.8489252,35.9839316 91.8256822,37.4097017 91.83,39 C91.8788142,39.9940078 91.524049,40.9655892 90.8462105,41.6942656 C90.168372,42.422942 89.2249382,42.8469246 88.23,42.87 L88.245,42.87 Z M71.61,34.59 L71.61,37.29 L78.09,37.29 C77.9883951,38.5617057 77.4597669,39.7616917 76.59,40.695 C75.2790343,42.030337 73.4648148,42.749487 71.595,42.675 C67.6185498,42.675 64.395,39.4514502 64.395,35.475 C64.395,31.4985498 67.6185498,28.275 71.595,28.275 C73.4216936,28.2452083 75.1856429,28.9410782 76.5,30.21 L78.405,28.305 C76.6123794,26.4897872 74.1610776,25.4778812 71.61,25.5 C67.9784411,25.3586685 64.5605903,27.2155077 62.7027811,30.3390856 C60.8449718,33.4626635 60.8449718,37.3523365 62.7027811,40.4759144 C64.5605903,43.5994923 67.9784411,45.4563315 71.61,45.315 C74.2076475,45.4323815 76.7291111,44.4205144 78.525,42.54 C80.0965136,40.8133824 80.9355646,38.5436418 80.865,36.21 C80.8698403,35.6414823 80.8196058,35.0738322 80.715,34.515 L71.61,34.59 Z M139.575,36.69 C138.774119,34.3338151 136.601892,32.7165796 134.115,32.6249885 C132.456545,32.6217575 130.870718,33.3051113 129.734069,34.5128003 C128.597421,35.7204893 128.011343,37.3447847 128.115,39 C128.078161,40.6939442 128.731747,42.3300425 129.925578,43.5323611 C131.11941,44.7346797 132.750837,45.3998382 134.445,45.375 C136.576288,45.3864885 138.570965,44.3271683 139.755,42.555 L137.58,41.055 C136.919619,42.1559133 135.728784,42.8282505 134.445,42.825 C133.115387,42.8756777 131.889962,42.1082998 131.355,40.89 L139.89,37.365 L139.575,36.69 Z M130.875,38.82 C130.813578,37.8827464 131.131989,36.9602175 131.75845,36.2603867 C132.384911,35.5605559 133.26669,35.1423325 134.205,35.1 C135.194055,35.0348274 136.1266,35.5660238 136.575,36.45 L130.875,38.82 Z M123.945,45 L126.75,45 L126.75,26.25 L123.945,26.25 L123.945,45 Z M119.355,34.0499961 L119.25,34.0499961 C118.394943,33.0940152 117.172586,32.5483199 115.89,32.5499961 C112.48522,32.7151075 109.809506,35.5237194 109.809506,38.9325 C109.809506,42.3412806 112.48522,45.1498925 115.89,45.315 C117.176743,45.3366356 118.407024,44.7874032 119.25,43.815 L119.34,43.815 L119.34,44.73 C119.34,47.175 118.035,48.48 115.935,48.48 C114.504455,48.4465161 113.236092,47.5515502 112.725,46.215 L110.28,47.235 C111.221522,49.5252165 113.458846,51.0147875 115.935,51.0001091 C119.22,51.0001091 121.935,49.065 121.935,44.355 L121.935,33 L119.355,33 L119.355,34.0499961 Z M116.145,42.87 C114.139331,42.6932397 112.601065,41.0134425 112.601065,39 C112.601065,36.9865575 114.139331,35.3067603 116.145,35.13 C117.114179,35.1797363 118.022229,35.6186552 118.663275,36.3472447 C119.304321,37.0758342 119.624059,38.0323753 119.55,39 C119.632702,39.9720741 119.313986,40.9356467 118.667955,41.6666816 C118.021925,42.3977164 117.104866,42.8325207 116.13,42.87 L116.145,42.87 Z M152.715,26.25 L146.01,26.25 L146.01,45 L148.815,45 L148.815,37.89 L152.73,37.89 C154.909026,38.0465457 156.992961,36.9727634 158.130195,35.1074595 C159.267429,33.2421555 159.267429,30.8978445 158.130195,29.0325405 C156.992961,27.1672366 154.909026,26.0934543 152.73,26.25 L152.715,26.25 Z M152.715,35.25 L148.8,35.25 L148.8,28.86 L152.775,28.86 C154.551976,28.86 155.9925,30.3005238 155.9925,32.0775 C155.9925,33.8544762 154.551976,35.295 152.775,35.295 L152.715,35.25 Z M170.01,32.55 C167.923069,32.4252584 165.96103,33.550632 165.015,35.415 L167.505,36.45 C168.006609,35.5255023 169.006687,34.9842834 170.055,35.07 C170.774292,34.9859919 171.49718,35.1944551 172.061292,35.6485653 C172.625404,36.1026754 172.983448,36.7643623 173.055,37.485 L173.055,37.68 C172.154089,37.2029986 171.149388,36.9556878 170.13,36.96 C167.445,36.96 164.73,38.46 164.73,41.175 C164.783531,42.3445632 165.307861,43.4427443 166.183697,44.219696 C167.059534,44.9966478 168.212397,45.386299 169.38,45.3 C170.818844,45.4033246 172.199353,44.7130697 172.98,43.5 L173.07,43.5 L173.07,45 L175.77,45 L175.77,37.785 C175.77,34.5 173.28,32.595 170.085,32.595 L170.01,32.55 Z M169.665,42.825 C168.75,42.825 167.475,42.36 167.475,41.235 C167.475,39.735 169.065,39.24 170.475,39.24 C171.366063,39.2180129 172.246696,39.4355811 173.025,39.87 C172.831044,41.5491225 171.429785,42.8288108 169.74,42.87 L169.665,42.825 Z M185.61,33 L182.4,41.13 L182.31,41.13 L178.98,33 L175.98,33 L180.975,44.37 L178.125,50.685 L181.05,50.685 L188.73,33 L185.61,33 Z M160.395,45 L163.2,45 L163.2,26.25 L160.395,26.25 L160.395,45 Z" id="Google-Play" fill="#FFFFFF"></path>
                    <path d="M71.13,15.36 C71.1815303,16.4718466 70.7749014,17.5561903 70.005,18.36 C69.1446746,19.2537048 67.9447257,19.7391387 66.705,19.695 C64.8035104,19.6801181 63.0962223,18.5268243 62.3725377,16.768369 C61.6488532,15.0099138 62.0498033,12.9889837 63.39,11.64 C64.2607995,10.7509889 65.4608683,10.2622731 66.705,10.29 C67.3391364,10.2878871 67.9670039,10.4155025 68.55,10.665 C69.0927817,10.8839303 69.5759761,11.2283348 69.96,11.67 L69.165,12.465 C68.5580202,11.7430147 67.6468273,11.3485348 66.705,11.4 C65.7582741,11.3953558 64.850519,11.7766315 64.191054,12.4559087 C63.5315891,13.1351859 63.1773425,14.0538261 63.21,15 C63.1899029,16.4297845 64.0319648,17.7312593 65.3443999,18.2988875 C66.6568351,18.8665156 68.1818888,18.5888185 69.21,17.595 C69.6715642,17.0948049 69.9377745,16.4452519 69.96,15.765 L66.705,15.765 L66.705,14.685 L71.07,14.685 C71.1100097,14.9077712 71.1300891,15.1336645 71.13,15.36 L71.13,15.36 Z M78,11.61 L73.95,11.61 L73.95,14.46 L77.64,14.46 L77.64,15.54 L73.95,15.54 L73.95,18.39 L78,18.39 L78,19.5 L72.75,19.5 L72.75,10.5 L78,10.5 L78,11.61 Z M82.92,19.5 L81.765,19.5 L81.765,11.61 L79.245,11.61 L79.245,10.5 L85.5,10.5 L85.5,11.61 L82.92,11.61 L82.92,19.5 Z M89.91,19.5 L89.91,10.5 L91.065,10.5 L91.065,19.5 L89.91,19.5 Z M96.195,19.5 L95.04,19.5 L95.04,11.61 L92.52,11.61 L92.52,10.5 L98.7,10.5 L98.7,11.61 L96.195,11.61 L96.195,19.5 Z M110.415,18.33 C108.589485,20.1453418 105.640515,20.1453418 103.815,18.33 C102.045403,16.4568508 102.045403,13.5281492 103.815,11.655 C104.687998,10.77562 105.875874,10.2810495 107.115,10.2810495 C108.354126,10.2810495 109.542002,10.77562 110.415,11.655 C112.192148,13.5251398 112.192148,16.4598602 110.415,18.33 L110.415,18.33 Z M104.67,17.58 C106.021986,18.9263476 108.208014,18.9263476 109.56,17.58 C110.887797,16.1162567 110.887797,13.8837433 109.56,12.42 C108.208014,11.0736524 106.021986,11.0736524 104.67,12.42 C103.342203,13.8837433 103.342203,16.1162567 104.67,17.58 L104.67,17.58 Z M113.37,19.5 L113.37,10.5 L114.78,10.5 L119.16,17.505 L119.16,10.5 L120.315,10.5 L120.315,19.5 L119.115,19.5 L114.54,12.165 L114.54,19.5 L113.37,19.5 Z" id="GET-IT-ON" stroke="#FFFFFF" stroke-width="0.5" fill="#FFFFFF"></path>
                    <g id="Icon" transform="translate(14.500000, 10.500000)">
                        <path d="M1.16,0.81 C0.671097435,1.3966625 0.424330475,2.14769238 0.47,2.91 L0.47,36.09 C0.424330475,36.8523076 0.671097435,37.6033375 1.16,38.19 L1.265,38.295 L19.85,19.725 L19.85,19.29 L1.265,0.705 L1.16,0.81 Z" id="Shape" fill="url(#linearGradient-1)"></path>
                        <path d="M26,25.92 L19.85,19.725 L19.85,19.29 L26,13.08 L26.135,13.155 L33.5,17.34 C35.6,18.525 35.6,20.475 33.5,21.675 L26.165,25.845 L26,25.92 Z" id="Shape" fill="url(#linearGradient-2)"></path>
                        <path d="M26.18,25.83 L19.85,19.5 L1.16,38.19 C2.04307659,38.9662836 3.35364344,39.0040884 4.28,38.28 L26.195,25.83" id="Shape" fill="url(#linearGradient-3)"></path>
                        <path d="M26.18,13.17 L4.265,0.72 C3.33864344,-0.00408841365 2.02807659,0.0337163993 1.145,0.81 L19.85,19.5 L26.18,13.17 Z" id="Shape" fill="url(#linearGradient-4)"></path>
                        <path d="M26,25.695 L4.265,38.07 C3.3755578,38.7350047 2.1544422,38.7350047 1.265,38.07 L1.16,38.175 L1.265,38.28 C2.15276868,38.9500189 3.37723132,38.9500189 4.265,38.28 L26.18,25.83 L26,25.695 Z" id="Shape" fill="#000000" opacity="0.2"></path>
                        <path d="M1.16,37.98 C0.671097435,37.3933375 0.424330475,36.6423076 0.47,35.88 L0.47,36.105 C0.424330475,36.8673076 0.671097435,37.6183375 1.16,38.205 L1.265,38.1 L1.16,37.98 Z M33.5,21.45 L26,25.695 L26.135,25.83 L33.5,21.66 C34.3506052,21.2604198 34.9227026,20.4365995 35,19.5 C34.8290442,20.3472569 34.2750589,21.0674378 33.5,21.45 Z" id="Shape" fill="#000000" opacity="0.12"></path>
                        <path d="M4.265,0.93 L33.5,17.55 C34.2750589,17.9325622 34.8290442,18.6527431 35,19.5 C34.9227026,18.5634005 34.3506052,17.7395802 33.5,17.34 L4.265,0.72 C2.165,-0.465 0.455,0.525 0.455,2.925 L0.455,3.15 C0.5,0.735 2.18,-0.255 4.265,0.93 L4.265,0.93 Z" id="Shape" fill="#FFFFFF" opacity="0.25"></path>
                    </g>
                </g>
            </g>
        </g>
    </g>
</svg>