<?xml version="1.0" encoding="UTF-8"?>
<svg width="34px" height="38px" viewBox="0 0 34 38" version="1.1" xmlns="http://www.w3.org/2000/svg" xmlns:xlink="http://www.w3.org/1999/xlink">
    <title>1</title>
    <defs>
        <linearGradient x1="46.6130713%" y1="0%" x2="46.6130713%" y2="100%" id="linearGradient-1">
            <stop stop-color="#2981C0" offset="0%"></stop>
            <stop stop-color="#154D70" offset="100%"></stop>
        </linearGradient>
    </defs>
    <g id="Page-1" stroke="none" stroke-width="1" fill="none" fill-rule="evenodd">
        <g id="landing-page" transform="translate(-317.000000, -2574.000000)" fill="url(#linearGradient-1)">
            <path d="M332.585082,2574.05944 C335.691488,2574.45362 338.176408,2576.63573 338.987041,2579.64091 C339.063006,2579.92449 339.298548,2580.19197 339.519815,2580.40767 C340.057687,2580.93409 340.710272,2581.36398 341.176258,2581.94269 C342.583904,2583.69039 342.541078,2585.80965 341.055428,2587.4945 C340.522654,2588.09936 339.805321,2588.54332 339.20066,2589.09086 C338.971746,2589.29851 338.728556,2589.566 338.651061,2589.84856 C338.148367,2591.68123 337.151646,2593.16547 335.509478,2594.16301 C335.007421,2594.4677 335.076917,2594.83263 335.164122,2595.19056 L335.206637,2595.36863 C335.21959,2595.42759 335.230472,2595.48604 335.236718,2595.54367 C335.257111,2595.72769 335.611954,2595.87803 335.817416,2596.03992 C335.848006,2596.06356 335.89797,2596.06205 335.937227,2596.07663 C337.389737,2596.60959 338.753028,2596.75741 340.282523,2596.03691 C341.798253,2595.32295 343.509759,2595.49993 345.133573,2595.98763 C345.766784,2596.17769 346.024249,2596.5397 345.889144,2597.01333 C345.757098,2597.47589 345.339035,2597.62774 344.693078,2597.44774 C340.8673,2596.38082 337.115448,2598.46388 336.154415,2602.18905 C335.064394,2606.4135 338.422657,2610.5409 342.849017,2610.41671 C347.26569,2610.29252 350.338956,2606.22143 349.189285,2602.0176 C349.161755,2601.91704 349.120968,2601.8195 349.097006,2601.71844 C348.986882,2601.24984 349.02308,2600.82699 349.555855,2600.63493 C350.003487,2600.47303 350.368017,2600.72593 350.581126,2601.30917 C351.789428,2604.62105 350.305307,2608.75348 347.137212,2610.63794 C346.525924,2611.00146 346.277636,2611.59676 345.776981,2612 L317.559318,2612 C317.140237,2611.72246 316.992895,2611.35039 317.000261,2610.84207 C317.028584,2608.92141 317.000261,2606.99975 317.014818,2605.07909 C317.042859,2601.41727 319.386556,2598.34824 322.953849,2597.30897 C324.452245,2596.87204 325.964916,2596.48037 327.465351,2596.04948 C327.738111,2595.97104 328.163821,2595.99668 328.110798,2595.52306 C328.058795,2595.05747 328.460543,2594.5582 327.786545,2594.14642 C326.130611,2593.1353 325.105339,2591.64503 324.660256,2589.76108 C324.602645,2589.51722 324.358436,2589.29248 324.153483,2589.11047 C323.512115,2588.54131 322.758074,2588.0722 322.210514,2587.43014 C320.688666,2585.64524 320.749336,2583.41083 322.34358,2581.68677 C322.892669,2581.09247 323.728284,2580.72744 324.185093,2580.08588 C324.639863,2579.44633 324.694415,2578.54433 325.079338,2577.83992 C326.539496,2575.1696 329.565858,2573.67631 332.585082,2574.05944 Z M328.081738,2597.4412 C326.542046,2597.88969 324.983999,2598.27986 323.446856,2598.7384 C321.260698,2599.39102 319.7674,2600.78928 318.939943,2602.89698 C318.590071,2603.78767 318.546194,2604.70269 318.544401,2605.62272 L318.546545,2606.23661 C318.546976,2606.33898 318.547203,2606.44136 318.546863,2606.54372 C318.542274,2607.81226 318.545843,2609.0803 318.545843,2610.36945 L323.174606,2610.36945 C323.174606,2608.7932 323.170018,2607.27126 323.177155,2605.74931 C323.180214,2605.09669 323.471328,2604.73719 323.959747,2604.73971 C324.448166,2604.74172 324.721946,2605.08814 324.729593,2605.75534 C324.73979,2606.63221 324.732652,2607.50958 324.732652,2608.38695 L324.732652,2610.39358 L324.732652,2610.39358 L337.801172,2610.39358 C335.740941,2608.74946 334.613193,2606.79109 334.445968,2604.35155 C334.277214,2601.88788 335.127614,2599.77515 336.905397,2597.92438 C336.271166,2597.74589 335.737882,2597.55684 335.187774,2597.4598 C334.950192,2597.41858 334.606056,2597.48997 334.434752,2597.64433 C333.764833,2598.25019 333.142838,2598.90784 332.504529,2599.5484 C331.80453,2600.25079 331.517494,2600.25331 330.829731,2599.56599 C330.190402,2598.92695 329.534249,2598.30349 328.914293,2597.64634 C328.659887,2597.37634 328.433012,2597.33913 328.081738,2597.4412 Z M331.674013,2606.59264 C332.134391,2606.64594 332.419897,2606.8918 332.414289,2607.35537 C332.408171,2607.82297 332.097173,2608.09347 331.645972,2608.08693 C331.1963,2608.07989 330.900088,2607.81241 330.911814,2607.33124 C330.922521,2606.85711 331.204967,2606.62985 331.674013,2606.59264 Z M345.898372,2600.74489 C346.29706,2600.99628 346.403105,2601.36784 346.155327,2601.77058 C345.170842,2603.37297 344.183807,2604.97386 343.170262,2606.55815 C342.845499,2607.06446 342.307626,2607.0891 341.889564,2606.63608 C341.037125,2605.71145 340.2061,2604.76771 339.378642,2603.82146 C339.044703,2603.43884 338.996269,2603.00543 339.406683,2602.65951 C339.831373,2602.30153 340.228022,2602.47599 340.561962,2602.85108 C341.159485,2603.5228 341.758537,2604.19252 342.398886,2604.91 C343.161595,2603.69275 343.890654,2602.52929 344.619714,2601.36583 C344.697718,2601.24164 344.763996,2601.10941 344.853727,2600.99477 C345.132095,2600.6388 345.48031,2600.48092 345.898372,2600.74489 Z M331.650713,2603.26387 C332.111601,2603.25733 332.367537,2603.54543 332.431776,2603.99794 C332.375694,2604.44794 332.14678,2604.73604 331.666518,2604.73704 C331.195943,2604.73805 330.914516,2604.49269 330.911967,2604.01503 C330.909418,2603.54141 331.192375,2603.2699 331.650713,2603.26387 Z M347.979658,2597.8098 C348.492549,2597.83091 348.756642,2598.11248 348.757155,2598.55745 C348.758172,2599.00845 348.466038,2599.30459 348.001581,2599.29956 C347.543242,2599.29454 347.249069,2599.01247 347.252638,2598.55041 C347.256207,2598.09136 347.536105,2597.83896 347.979658,2597.8098 Z M329.623979,2595.0977 C329.668334,2595.53211 329.567897,2596.03741 329.778458,2596.29987 C330.322958,2596.97863 331.004604,2597.5498 331.650561,2598.18231 C332.200669,2597.65036 332.670734,2597.1355 333.204528,2596.69607 C333.777579,2596.22395 333.793894,2595.70406 333.539487,2595.11479 C332.885373,2595.17814 332.25777,2595.28725 331.629657,2595.28624 C331.004604,2595.28524 330.37955,2595.17362 329.623979,2595.0977 Z M332.161412,2581.87632 C330.867969,2582.6119 329.56127,2583.3329 328.214294,2583.96541 C327.481156,2584.30982 326.657777,2584.46569 325.828281,2584.7206 C325.912913,2586.11937 325.961857,2587.51411 326.089825,2588.90131 C326.337093,2591.58671 328.70985,2593.68435 331.555732,2593.7834 C334.192072,2593.87541 336.748369,2591.91 337.130233,2589.34326 C337.374952,2587.69913 337.403503,2586.02283 337.493743,2584.3591 C337.501391,2584.22334 337.26177,2584.02374 337.093015,2583.93826 C335.728196,2583.24693 334.341453,2582.59631 332.988359,2581.88436 C332.666655,2581.71492 332.494332,2581.68677 332.161412,2581.87632 Z M333.760296,2590.24024 C334.071803,2590.64398 333.965758,2591.08643 333.561971,2591.32476 C332.981273,2591.66766 332.336845,2591.90447 331.651121,2592.21771 C330.960809,2591.89844 330.315362,2591.66062 329.738742,2591.31168 C329.340563,2591.07085 329.233499,2590.63091 329.565909,2590.22767 C329.891182,2589.83298 330.284262,2589.86616 330.689578,2590.13415 C331.480837,2590.65755 331.827013,2590.65454 332.639685,2590.12359 C333.04959,2589.8556 333.450828,2589.84052 333.760296,2590.24024 Z M324.150424,2582.15235 C322.113646,2583.51542 322.265066,2586.12842 324.441029,2587.36629 C324.343651,2585.62462 324.249332,2583.92921 324.150424,2582.15235 Z M339.152736,2582.15135 C339.066065,2583.86888 338.982962,2585.50747 338.903428,2587.14707 C338.900369,2587.20037 338.932998,2587.25618 338.950843,2587.3145 C341.038094,2586.18423 341.187475,2583.46765 339.152736,2582.15135 Z M328.522079,2585.5749 C328.987556,2585.6121 329.256237,2585.91679 329.219529,2586.37081 C329.183841,2586.8188 328.894257,2587.08679 328.412466,2587.0541 C327.926596,2587.02142 327.728271,2586.71422 327.708388,2586.25567 C327.788941,2585.8107 328.049975,2585.53769 328.522079,2585.5749 Z M334.864184,2585.57324 C335.341896,2585.57927 335.564692,2585.88446 335.618225,2586.33547 C335.54277,2586.7739 335.319973,2587.06954 334.832064,2587.05496 C334.354352,2587.04038 334.08618,2586.76133 334.096377,2586.30178 C334.106064,2585.84173 334.394119,2585.56821 334.864184,2585.57324 Z M328.067972,2576.7021 C326.123983,2578.16874 325.271035,2580.35839 325.846635,2583.07045 C326.006722,2583.04179 326.170888,2583.02318 326.328936,2582.98195 C328.358067,2582.45201 330.213345,2581.57565 331.814726,2580.22566 C332.316911,2579.80281 332.758425,2579.75253 333.269786,2580.19348 C333.601687,2580.48057 333.971825,2580.72996 334.343492,2580.96727 C335.334096,2581.59677 336.360387,2582.15436 337.519745,2582.44598 C338.051499,2580.287 336.935987,2577.77053 334.910935,2576.4673 C332.838979,2575.1349 330.037453,2575.21636 328.067972,2576.7021 Z" id="1"></path>
        </g>
    </g>
</svg>