<?xml version="1.0" encoding="UTF-8"?>
<svg width="42px" height="41px" viewBox="0 0 42 41" version="1.1" xmlns="http://www.w3.org/2000/svg" xmlns:xlink="http://www.w3.org/1999/xlink">
    <title>3</title>
    <defs>
        <linearGradient x1="46.6130713%" y1="0%" x2="46.6130713%" y2="100%" id="linearGradient-1">
            <stop stop-color="#2981C0" offset="0%"></stop>
            <stop stop-color="#154D70" offset="100%"></stop>
        </linearGradient>
    </defs>
    <g id="Page-1" stroke="none" stroke-width="1" fill="none" fill-rule="evenodd">
        <g id="landing-page" transform="translate(-1247.000000, -2572.000000)" fill="url(#linearGradient-1)">
            <path d="M1283.56036,2577.26783 C1283.38015,2579.24654 1281.90059,2580.94956 1279.95613,2581.42031 C1279.74234,2581.47209 1279.51235,2581.48682 1279.50956,2581.82062 C1279.50684,2582.12798 1279.58622,2582.2526 1279.9133,2582.24559 C1280.78754,2582.22676 1281.66254,2582.2336 1282.53712,2582.24182 C1284.28373,2582.25825 1285.60726,2583.59391 1285.60912,2585.36369 C1285.61608,2591.95416 1285.61599,2598.54454 1285.61116,2605.13501 C1285.61091,2605.43997 1285.71046,2605.64428 1285.9078,2605.88137 C1286.10896,2606.12299 1286.24099,2606.47811 1286.27246,2606.79669 C1286.32953,2607.3746 1286.29764,2607.96244 1286.28628,2608.54584 C1286.28119,2608.80415 1286.37677,2608.90061 1286.6327,2608.89462 C1287.15433,2608.88255 1287.67655,2608.88666 1288.19851,2608.89377 C1288.7343,2608.90104 1288.99329,2609.16672 1288.99677,2609.71314 C1289.00168,2610.49596 1289.00004,2611.27895 1288.99804,2612.06177 C1288.99626,2612.77338 1288.77314,2612.9984 1288.05808,2612.99866 C1282.86675,2613 1277.67526,2613 1272.48376,2613 C1264.31567,2612.99943 1256.14758,2612.99874 1247.97957,2612.99754 C1247.20786,2612.99737 1247.00178,2612.79024 1247.00068,2612.01701 C1246.99987,2611.27681 1246.99898,2610.53661 1247.00314,2609.79633 C1247.00679,2609.12966 1247.2361,2608.89471 1247.88696,2608.89248 C1248.98737,2608.8888 1250.08769,2608.88974 1251.1881,2608.88863 L1251.64138,2608.88863 L1251.64138,2608.88863 C1251.46354,2608.44056 1251.34592,2608.0744 1251.16979,2607.73956 C1251.11161,2607.62915 1250.90376,2607.54604 1250.76197,2607.54228 C1250.02893,2607.52242 1249.29512,2607.53372 1248.56149,2607.53166 C1247.93174,2607.52986 1247.66478,2607.28738 1247.68267,2606.66761 C1247.71328,2605.60388 1247.65579,2604.51909 1247.84549,2603.48232 C1248.2774,2601.12205 1250.44378,2599.37367 1252.82591,2599.32839 C1253.58745,2599.31392 1254.35051,2599.34731 1255.11068,2599.31119 C1255.36755,2599.29895 1255.66733,2599.20043 1255.86255,2599.03763 C1257.04666,2598.05025 1258.21254,2597.04035 1259.37129,2596.02258 C1260.00842,2595.46307 1260.7217,2595.19859 1261.57423,2595.21391 C1263.18193,2595.24284 1264.7904,2595.22247 1266.39861,2595.2229 C1266.89234,2595.22307 1267.39005,2595.18593 1267.87877,2595.23625 C1268.34587,2595.28436 1268.80372,2595.42396 1269.31924,2595.53488 C1269.32797,2595.40521 1269.34807,2595.24481 1269.34824,2595.08441 C1269.35079,2593.12009 1269.34655,2591.15567 1269.3518,2589.19135 C1269.35587,2587.68314 1270.26658,2586.59826 1271.74801,2586.35783 C1272.01463,2586.31453 1272.06645,2586.19684 1272.06093,2585.96591 C1272.04474,2585.29616 1272.03973,2584.63008 1272.35452,2584.00586 C1272.92516,2582.87434 1273.83714,2582.28162 1275.08689,2582.24516 C1275.94671,2582.22008 1276.80789,2582.2467 1277.6683,2582.23446 C1277.8497,2582.23189 1278.11683,2582.35591 1278.15508,2582.00028 C1278.18866,2581.68727 1278.10792,2581.50599 1277.76659,2581.42382 C1276.10741,2581.02454 1274.98071,2580.0006 1274.37624,2578.39405 C1273.39116,2575.77589 1274.98945,2572.77093 1277.70256,2572.13396 C1280.93459,2571.37511 1283.86319,2573.94174 1283.56036,2577.26783 Z M1248.36196,2610.59145 L1248.36187,2610.77142 C1248.36249,2610.84022 1248.36338,2610.91823 1248.36347,2611.00668 C1248.36415,2611.62371 1248.3661,2611.62405 1248.98567,2611.62405 L1267.9863,2611.62405 L1267.9863,2611.62405 L1267.9863,2611.62209 C1271.20247,2611.62209 1274.41855,2611.62183 1277.63472,2611.62217 C1280.80857,2611.62243 1283.98243,2611.62465 1287.15628,2611.62054 C1287.3029,2611.62029 1287.57249,2611.57989 1287.57707,2611.53607 C1287.61658,2611.15835 1287.63677,2610.77173 1287.58784,2610.39778 C1287.57911,2610.33059 1287.227,2610.27179 1287.03331,2610.27171 C1274.38065,2610.26589 1261.72806,2610.26597 1249.07548,2610.26751 C1248.45452,2610.26765 1248.36972,2610.20457 1248.36196,2610.59145 Z M1284.47013,2606.84299 C1282.38439,2606.85583 1280.29848,2606.84907 1278.21266,2606.8495 C1276.5355,2606.84984 1274.85843,2606.85797 1273.18144,2606.84616 C1272.85588,2606.84385 1272.71875,2606.93748 1272.74072,2607.28105 C1272.76438,2607.64926 1272.76692,2608.02193 1272.73851,2608.38946 C1272.70883,2608.77265 1272.82713,2608.90498 1273.22817,2608.90053 C1275.08825,2608.87964 1276.94858,2608.89128 1278.80891,2608.89128 L1278.80891,2608.88752 C1280.71156,2608.88752 1282.61412,2608.88153 1284.5166,2608.8936 C1284.82478,2608.89556 1284.95088,2608.81117 1284.93239,2608.48661 C1284.90984,2608.08972 1284.90551,2607.68898 1284.93341,2607.29278 C1284.95919,2606.9249 1284.809,2606.84085 1284.47013,2606.84299 Z M1270.86224,2607.5243 C1268.39522,2607.54116 1265.92795,2607.53235 1263.46085,2607.53243 C1261.71263,2607.53252 1259.96449,2607.52849 1258.21644,2607.5415 C1258.05735,2607.54262 1257.81947,2607.60912 1257.75545,2607.72356 C1257.5654,2608.06301 1257.44397,2608.44159 1257.26054,2608.89111 L1257.82626,2608.89111 L1257.82626,2608.89111 C1262.06982,2608.89163 1266.3133,2608.89668 1270.55678,2608.88932 C1271.49987,2608.88769 1271.34401,2609.01787 1271.39056,2608.04136 C1271.41083,2607.61674 1271.25954,2607.52156 1270.86224,2607.5243 Z M1254.45431,2604.80266 C1253.33422,2604.80197 1252.41699,2605.7422 1252.43013,2606.87723 C1252.44311,2607.98615 1253.36899,2608.89633 1254.47542,2608.88786 C1255.576,2608.87956 1256.48382,2607.94892 1256.4785,2606.83495 C1256.47297,2605.72191 1255.55794,2604.80326 1254.45431,2604.80266 Z M1263.49036,2600.69168 C1260.02131,2600.70402 1256.55226,2600.69349 1253.0832,2600.70727 C1252.66563,2600.70898 1252.23559,2600.77018 1251.83397,2600.88445 C1251.18081,2601.07009 1250.5983,2601.40176 1250.16258,2601.94116 C1250.17648,2601.98019 1250.19039,2602.01922 1250.20421,2602.05825 C1250.45421,2602.05825 1250.70413,2602.05388 1250.95388,2602.05919 C1251.44031,2602.06946 1251.74899,2602.34481 1251.74289,2602.75633 C1251.73704,2603.14929 1251.43793,2603.41967 1250.97406,2603.4302 C1250.53715,2603.44004 1250.09829,2603.45485 1249.66317,2603.42532 C1249.32294,2603.40221 1249.15308,2603.53779 1249.13476,2603.86261 C1249.09643,2604.54255 1249.0614,2605.22308 1249.05614,2605.90362 C1249.05547,2605.98742 1249.24093,2606.13994 1249.3466,2606.14602 C1249.81047,2606.17281 1250.27731,2606.14302 1250.74178,2606.16254 C1251.03664,2606.17503 1251.15639,2606.05307 1251.24263,2605.77481 C1251.66919,2604.40029 1252.97194,2603.44081 1254.39342,2603.42575 C1255.87493,2603.41 1257.19761,2604.33122 1257.65674,2605.73792 C1257.75892,2606.0511 1257.89648,2606.16622 1258.22026,2606.16399 C1259.98289,2606.15141 1261.74579,2606.1497 1263.50843,2606.16493 C1263.84713,2606.16784 1263.94169,2606.05931 1263.93838,2605.72568 C1263.92354,2604.20326 1263.92362,2602.68059 1263.93898,2601.15817 C1263.94236,2600.81332 1263.85044,2600.69041 1263.49036,2600.69168 Z M1265.67685,2600.69366 C1265.37902,2600.6899 1265.28769,2600.79517 1265.28964,2601.08952 C1265.30032,2602.64027 1265.30499,2604.19128 1265.28675,2605.74194 C1265.28251,2606.10202 1265.42575,2606.16802 1265.73672,2606.16288 C1266.63886,2606.14807 1267.54151,2606.15766 1268.4439,2606.15757 C1269.34638,2606.15757 1270.24885,2606.15946 1271.15125,2606.15672 C1271.61538,2606.15535 1272.05652,2605.71703 1272.0578,2605.25296 C1272.06093,2604.05793 1272.07306,2602.86247 1272.05517,2601.66761 C1272.03846,2600.54525 1272.27192,2600.7261 1271.05703,2600.69537 C1270.80559,2600.68904 1270.71985,2600.78456 1270.68856,2601.03389 C1270.59824,2601.75397 1270.25912,2602.34173 1269.71256,2602.81976 C1269.50581,2603.00061 1269.32178,2603.22015 1269.17049,2603.451 C1268.79948,2604.01658 1268.1018,2604.26763 1267.51021,2604.0189 C1266.8635,2603.74714 1266.51403,2603.08501 1266.67159,2602.4298 C1266.825,2601.79163 1267.42575,2601.33389 1268.08315,2601.38661 C1268.28735,2601.40296 1268.48206,2601.51799 1268.68695,2601.55488 C1268.80355,2601.57585 1269.00436,2601.57252 1269.04168,2601.50712 C1269.16329,2601.29451 1269.22697,2601.04827 1269.31288,2600.81503 C1269.18661,2600.77643 1269.06067,2600.70522 1268.93406,2600.7041 C1267.84841,2600.6952 1266.7625,2600.70736 1265.67685,2600.69366 Z M1275.37793,2583.61462 C1274.08078,2583.61548 1273.42279,2584.27608 1273.42228,2585.57981 C1273.42101,2588.7669 1273.42194,2591.95399 1273.42177,2595.14108 C1273.42177,2598.41359 1273.4289,2601.68618 1273.41284,2604.95852 C1273.41083,2605.37141 1273.52676,2605.48577 1273.9339,2605.48382 C1277.12064,2605.46779 1280.30747,2605.47746 1283.49421,2605.47318 C1284.16552,2605.47222 1284.24534,2605.52791 1284.25059,2605.12224 L1284.25007,2604.94748 C1284.24941,2604.88135 1284.24859,2604.80699 1284.24862,2604.7234 C1284.25202,2598.33493 1284.25015,2591.94645 1284.25117,2585.55798 C1284.25134,2584.29234 1283.58393,2583.61599 1282.31553,2583.61471 C1280.00303,2583.61223 1277.69044,2583.61317 1275.37793,2583.61462 Z M1280.07275,2590.43819 C1280.61236,2590.44264 1280.86159,2590.70609 1280.87185,2591.25619 C1280.8822,2591.80963 1280.8822,2591.80963 1281.4341,2591.8056 C1282.8828,2591.79508 1282.90883,2591.82983 1282.9062,2593.27727 C1282.90027,2596.55123 1282.90451,2599.82528 1282.9029,2603.09925 C1282.90256,2603.91297 1282.70513,2604.11445 1281.91528,2604.11539 C1279.82742,2604.11753 1277.73939,2604.1189 1275.65153,2604.11959 C1275.00787,2604.11984 1274.76932,2603.87608 1274.76872,2603.21343 C1274.76728,2601.44836 1274.76821,2599.6832 1274.76838,2597.91804 C1274.76847,2596.18139 1274.76694,2594.44474 1274.76932,2592.70817 C1274.77025,2592.04526 1275.00337,2591.81254 1275.65772,2591.80732 C1275.9257,2591.80518 1276.19435,2591.79508 1276.46165,2591.8092 C1276.72378,2591.82315 1276.7951,2591.70735 1276.80129,2591.45545 C1276.82232,2590.60381 1276.99625,2590.44162 1277.8297,2590.43999 C1278.57733,2590.43854 1279.32512,2590.43194 1280.07275,2590.43819 Z M1260.14901,2602.05877 C1260.62603,2602.05021 1261.10338,2602.06382 1261.5804,2602.05526 C1261.80844,2602.05115 1261.89782,2602.13452 1261.91258,2602.374 C1261.9752,2603.38666 1261.98413,2603.43029 1261.06206,2603.4324 L1260.93047,2603.43252 C1260.79021,2603.43252 1260.64977,2603.43252 1260.50951,2603.43192 C1260.17267,2603.4314 1259.8332,2603.45545 1259.50069,2603.41797 C1259.38891,2603.4053 1259.29283,2603.23771 1259.19421,2603.13645 C1259.18004,2603.1219 1259.19124,2603.08168 1259.19149,2603.05343 C1259.20065,2601.86003 1259.03011,2602.07888 1260.14901,2602.05877 Z M1281.09955,2601.37483 C1279.76144,2601.39486 1278.4229,2601.38142 1277.08453,2601.38682 C1276.22592,2601.39033 1276.1403,2601.2879 1276.13199,2601.73644 L1276.13109,2601.9927 C1276.13089,2602.09358 1276.12988,2602.21079 1276.12532,2602.3469 C1276.11396,2602.68404 1276.25567,2602.75226 1276.5518,2602.74627 C1277.31215,2602.73086 1278.07317,2602.74113 1278.83386,2602.74079 L1280.65128,2602.74079 C1281.54943,2602.74079 1281.5351,2602.74053 1281.54799,2601.84002 C1281.55291,2601.49406 1281.45912,2601.36936 1281.09955,2601.37483 Z M1276.12643,2599.61678 C1276.11981,2599.91062 1276.21428,2600.01881 1276.51228,2600.01247 C1277.27203,2599.99621 1278.03238,2600.00699 1278.79239,2600.00699 L1278.79239,2600.00477 C1279.39763,2600.00477 1280.00296,2600.00853 1280.6082,2600.00391 C1281.71684,2599.99552 1281.50517,2600.16517 1281.54748,2599.06566 C1281.56131,2598.706 1281.41426,2598.64386 1281.10116,2598.64677 C1279.74999,2598.65918 1278.39873,2598.64087 1277.04756,2598.65157 C1276.00024,2598.65987 1276.15212,2598.47251 1276.12643,2599.61678 Z M1265.64988,2596.59579 C1265.40887,2596.59228 1265.28616,2596.6587 1265.29108,2596.93011 C1265.30329,2597.61159 1265.30176,2598.29359 1265.29277,2598.97524 C1265.28947,2599.23201 1265.39174,2599.32984 1265.64301,2599.32556 C1266.20594,2599.31606 1266.76895,2599.32257 1267.33204,2599.32377 L1268.44391,2599.32309 C1269.34014,2599.31566 1269.34055,2599.22646 1269.34554,2598.15604 C1269.34909,2597.38118 1268.65888,2596.63234 1267.88776,2596.61017 C1267.14234,2596.58869 1266.39573,2596.60666 1265.64988,2596.59579 Z M1259.58915,2597.62871 C1259.04743,2598.19481 1258.41361,2598.67113 1257.81769,2599.19042 C1257.87807,2599.27507 1257.88605,2599.29629 1257.89427,2599.29638 C1259.82177,2599.30571 1261.74943,2599.3176 1263.67685,2599.30879 C1263.7619,2599.30836 1263.91642,2599.12186 1263.91947,2599.01838 C1263.93991,2598.32303 1263.92015,2597.62649 1263.93066,2596.93071 C1263.93473,2596.65793 1263.80744,2596.59108 1263.56915,2596.59673 C1263.17523,2596.60606 1262.77547,2596.6409 1262.38775,2596.58971 C1261.26588,2596.44164 1260.37087,2596.81208 1259.58915,2597.62871 Z M1271.53405,2587.83848 C1270.97511,2588.0974 1270.71324,2588.5483 1270.71324,2589.16276 C1270.71324,2591.65416 1270.71214,2594.14556 1270.71476,2596.63696 C1270.71485,2596.76235 1270.69941,2596.9314 1270.76904,2597.00595 C1271.15057,2597.41396 1271.55652,2597.7987 1271.95408,2598.19139 C1271.988,2598.17573 1272.02209,2598.15998 1272.05601,2598.1444 C1272.05601,2597.40763 1272.05576,2596.67094 1272.0561,2595.93425 C1272.0572,2593.34322 1272.05924,2590.75219 1272.05881,2588.16125 C1272.05881,2587.68947 1271.97181,2587.63572 1271.53405,2587.83848 Z M1281.07131,2595.90878 C1279.73473,2595.92872 1278.39763,2595.91426 1277.06079,2595.91606 C1276.20237,2595.91714 1276.13013,2595.91907 1276.12472,2596.61667 L1276.12439,2596.8609 L1276.12439,2596.8609 C1276.12456,2597.17186 1276.21377,2597.28749 1276.53212,2597.27962 L1277.29177,2597.26973 L1277.29177,2597.26973 L1278.81164,2597.27363 L1278.81164,2597.27363 C1279.44495,2597.27363 1280.07835,2597.28141 1280.71141,2597.27183 C1281.64373,2597.25762 1281.52196,2597.44275 1281.54638,2596.39854 C1281.55495,2596.03109 1281.44852,2595.90313 1281.07131,2595.90878 Z M1278.75414,2591.81391 C1278.18113,2591.8169 1278.16764,2591.8169 1278.16527,2592.38746 C1278.16357,2592.76243 1278.01737,2593.03248 1277.67103,2593.14169 C1277.47599,2593.20323 1277.25278,2593.18123 1277.04213,2593.18397 C1276.12914,2593.19587 1276.14254,2593.19441 1276.12727,2594.10425 C1276.12159,2594.43429 1276.20767,2594.55815 1276.5518,2594.54728 C1277.2979,2594.52382 1278.04527,2594.54009 1278.79222,2594.54009 L1278.79222,2594.53538 L1280.56766,2594.53546 C1281.59998,2594.5335 1281.59328,2594.53367 1281.54112,2593.50888 C1281.52925,2593.27487 1281.45539,2593.17293 1281.2187,2593.17986 C1280.89484,2593.18945 1280.57021,2593.18868 1280.24643,2593.17798 C1279.78824,2593.16292 1279.51407,2592.89322 1279.51415,2592.42572 C1279.51423,2591.83445 1279.52843,2591.81461 1279.08425,2591.81459 L1278.88101,2591.81434 L1278.88101,2591.81434 C1278.83869,2591.81399 1278.79646,2591.81374 1278.75414,2591.81391 Z M1281.78932,2584.97537 C1282.48241,2584.97794 1282.89176,2585.39348 1282.90117,2586.08977 C1282.90957,2586.70175 1282.90686,2587.3139 1282.90516,2587.92605 C1282.90312,2588.64442 1282.49166,2589.07375 1281.78525,2589.07872 C1280.79771,2589.08556 1279.81017,2589.08043 1278.82255,2589.08043 L1278.82255,2589.08257 C1277.84918,2589.08257 1276.87564,2589.09036 1275.90235,2589.08 C1275.1794,2589.07221 1274.77786,2588.6612 1274.76988,2587.94112 C1274.76293,2587.31484 1274.75928,2586.68831 1274.76624,2586.06212 C1274.77362,2585.40504 1275.20637,2584.97177 1275.86393,2584.97066 C1277.83909,2584.96724 1279.81425,2584.96826 1281.78932,2584.97537 Z M1281.08808,2586.34192 C1279.73699,2586.3581 1278.38565,2586.34577 1277.03439,2586.3498 C1276.10333,2586.35262 1276.11402,2586.35673 1276.12462,2587.31878 C1276.12784,2587.61493 1276.22053,2587.71721 1276.51505,2587.7113 C1277.2888,2587.69564 1278.06322,2587.706 1278.83731,2587.70617 C1279.44264,2587.70617 1280.04796,2587.71473 1280.65304,2587.70429 C1281.66593,2587.68674 1281.51871,2587.89156 1281.54602,2586.80437 C1281.55492,2586.45191 1281.43653,2586.33781 1281.08808,2586.34192 Z M1278.85216,2573.36518 C1276.98852,2573.35955 1275.4551,2574.89797 1275.45587,2576.77234 C1275.45655,2578.65425 1276.97851,2580.18839 1278.84283,2580.18651 C1280.70588,2580.18454 1282.22106,2578.64483 1282.21565,2576.75891 C1282.2102,2574.89874 1280.69587,2573.37068 1278.85216,2573.36518 Z M1279.11493,2574.77765 C1279.49171,2574.95251 1279.59568,2575.31585 1279.40615,2575.78891 C1279.38087,2575.85216 1279.36578,2575.91961 1279.38266,2575.86389 C1279.70228,2576.16988 1280.01419,2576.3563 1280.15471,2576.63182 C1280.3266,2576.96879 1279.44566,2578.67523 1279.07168,2578.7711 C1278.87087,2578.82254 1278.55243,2578.78316 1278.42421,2578.65024 C1278.26783,2578.48796 1278.22958,2578.1883 1278.19227,2577.94009 C1278.17438,2577.82163 1278.27648,2577.68468 1278.33601,2577.52463 C1278.19643,2577.49159 1278.08898,2577.47464 1277.9873,2577.44066 C1277.55421,2577.29601 1277.369,2576.87969 1277.56328,2576.45165 C1277.75621,2576.0266 1277.96457,2575.60831 1278.1787,2575.19362 C1278.39665,2574.7714 1278.76452,2574.61511 1279.11493,2574.77765 Z" id="3"></path>
        </g>
    </g>
</svg>