<?xml version="1.0" encoding="UTF-8"?>
<svg width="34px" height="35px" viewBox="0 0 34 35" version="1.1" xmlns="http://www.w3.org/2000/svg" xmlns:xlink="http://www.w3.org/1999/xlink">
    <title>2</title>
    <defs>
        <linearGradient x1="46.6130713%" y1="0%" x2="46.6130713%" y2="100%" id="linearGradient-1">
            <stop stop-color="#2981C0" offset="0%"></stop>
            <stop stop-color="#154D70" offset="100%"></stop>
        </linearGradient>
    </defs>
    <g id="Page-1" stroke="none" stroke-width="1" fill="none" fill-rule="evenodd">
        <g id="landing-page" transform="translate(-784.000000, -2575.000000)" fill="url(#linearGradient-1)">
            <path d="M795.137931,2582.5384 L795.137931,2583.70698 L788.103448,2583.70698 L788.103448,2584.87556 L796.310345,2584.87556 L796.310345,2586.04414 L787.868737,2586.04414 L785.172414,2591.41972 L785.172414,2591.88703 L816.827586,2591.88703 L816.827586,2591.41972 L814.130977,2586.04414 L805.689655,2586.04414 L805.689655,2584.87556 L813.896552,2584.87556 L813.896552,2583.70698 L806.862069,2583.70698 L806.862069,2582.5384 L815.068966,2582.5384 L815.068966,2585.34316 L818,2591.18606 L818,2594.51633 C818,2595.39277 817.530863,2596.21072 816.827586,2596.67832 L816.827586,2596.67832 L816.827586,2610 L785.172414,2610 L785.172414,2596.67832 C784.468851,2596.21072 784,2595.39277 784,2594.51633 L784,2594.51633 L784,2591.18606 L786.931034,2585.34316 L786.931034,2582.5384 L795.137931,2582.5384 Z M806.862069,2607.66284 L786.344828,2607.66284 L786.344828,2608.83142 L806.862069,2608.83142 L806.862069,2607.66284 Z M813.310345,2596.15252 C813.134311,2596.32769 813.017241,2596.50286 812.841208,2596.61983 C811.727472,2597.49627 810.086207,2597.26261 809.206897,2596.15252 C808.913793,2596.50286 808.503334,2596.79501 808.034483,2596.97046 L808.034483,2596.97046 L808.034483,2608.83142 L815.655172,2608.83142 L815.655172,2597.08715 C815.537817,2597.14564 815.479139,2597.14564 815.362069,2597.14564 C814.54115,2597.14564 813.779196,2596.79501 813.310345,2596.15252 Z M805.103448,2596.15252 C804.927414,2596.32769 804.810345,2596.50286 804.634311,2596.61983 C803.520575,2597.49627 801.87931,2597.26261 801,2596.15252 C800.823966,2596.32769 800.706897,2596.50286 800.530863,2596.61983 C799.417127,2597.49627 797.775862,2597.26261 796.896552,2596.15252 C796.720518,2596.32769 796.603448,2596.50286 796.427414,2596.61983 C795.313679,2597.49627 793.672414,2597.26261 792.793103,2596.15252 C792.61707,2596.32769 792.5,2596.50286 792.323966,2596.61983 C791.21023,2597.49627 789.568966,2597.26261 788.689655,2596.15252 C788.220518,2596.79501 787.458563,2597.14564 786.637931,2597.14564 C786.520575,2597.14564 786.461897,2597.14564 786.344828,2597.08715 L786.344828,2597.08715 L786.344828,2606.49426 L806.862069,2606.49426 L806.862069,2597.14564 C806.158506,2597.02895 805.513621,2596.67832 805.103448,2596.15252 Z M805.689655,2598.31421 L805.689655,2604.7414 L787.517241,2604.7414 L787.517241,2598.31421 L805.689655,2598.31421 Z M804.517241,2599.48279 L788.689655,2599.48279 L788.689655,2603.57282 L804.517241,2603.57282 L804.517241,2599.48279 Z M810.37931,2601.23566 L810.37931,2602.40424 L809.206897,2602.40424 L809.206897,2601.23566 L810.37931,2601.23566 Z M808.62069,2593.05561 L805.689655,2593.05561 L805.689655,2594.51633 C805.689655,2595.33428 806.334254,2595.97706 807.155172,2595.97706 C807.975805,2595.97706 808.62069,2595.33428 808.62069,2594.51633 L808.62069,2594.51633 L808.62069,2593.05561 Z M792.206897,2593.05561 L789.275862,2593.05561 L789.275862,2594.51633 C789.275862,2595.33428 789.920461,2595.97706 790.741379,2595.97706 C791.562012,2595.97706 792.206897,2595.33428 792.206897,2594.51633 L792.206897,2594.51633 L792.206897,2593.05561 Z M796.310345,2593.05561 L793.37931,2593.05561 L793.37931,2594.51633 C793.37931,2595.33428 794.023909,2595.97706 794.844828,2595.97706 C795.66546,2595.97706 796.310345,2595.33428 796.310345,2594.51633 L796.310345,2594.51633 L796.310345,2593.05561 Z M800.413793,2593.05561 L797.482759,2593.05561 L797.482759,2594.51633 C797.482759,2595.33428 798.127357,2595.97706 798.948276,2595.97706 C799.768908,2595.97706 800.413793,2595.33428 800.413793,2594.51633 L800.413793,2594.51633 L800.413793,2593.05561 Z M804.517241,2593.05561 L801.586207,2593.05561 L801.586207,2594.51633 C801.586207,2595.33428 802.230805,2595.97706 803.051724,2595.97706 C803.872357,2595.97706 804.517241,2595.33428 804.517241,2594.51633 L804.517241,2594.51633 L804.517241,2593.05561 Z M812.724138,2593.05561 L809.793103,2593.05561 L809.793103,2594.51633 C809.793103,2595.33428 810.437702,2595.97706 811.258621,2595.97706 C812.079253,2595.97706 812.724138,2595.33428 812.724138,2594.51633 L812.724138,2594.51633 L812.724138,2593.05561 Z M788.103448,2593.05561 L785.172414,2593.05561 L785.172414,2594.51633 C785.172414,2595.33428 785.817012,2595.97706 786.637931,2595.97706 C787.458563,2595.97706 788.103448,2595.33428 788.103448,2594.51633 L788.103448,2594.51633 L788.103448,2593.05561 Z M816.827586,2593.05561 L813.896552,2593.05561 L813.896552,2594.51633 C813.896552,2595.33428 814.54115,2595.97706 815.362069,2595.97706 C816.182701,2595.97706 816.827586,2595.33428 816.827586,2594.51633 L816.827586,2594.51633 L816.827586,2593.05561 Z M801.215595,2575.0011 C803.935394,2575.0569 806.218689,2577.23502 806.275862,2579.96759 L806.275862,2579.96759 L806.275862,2580.3767 C806.275862,2581.13617 806.04115,2581.89563 805.689655,2582.59689 L805.689655,2582.59689 L801,2590.71845 L796.310345,2582.65538 C795.899885,2581.95411 795.724138,2581.13617 795.724138,2580.3767 L795.724138,2580.3767 L795.724138,2579.96759 C795.78253,2577.16311 798.186035,2574.94264 801,2575.00113 Z M801.20242,2576.11084 L801,2576.11122 C798.83092,2576.05274 796.954943,2577.7474 796.896552,2579.9091 L796.896552,2579.9091 L796.896552,2580.31822 C796.896552,2580.90251 797.013621,2581.4868 797.306725,2582.0126 L797.306725,2582.0126 L801,2588.3813 L804.692989,2582.0126 C804.986092,2581.4868 805.103448,2580.90251 805.103448,2580.31822 L805.103448,2580.31822 L805.103448,2579.9091 C805.04477,2577.7474 803.168794,2576.05274 801,2576.11122 Z M801,2577.2798 C802.289483,2577.2798 803.344828,2578.33169 803.344828,2579.61696 C803.344828,2580.90251 802.289483,2581.95411 801,2581.95411 C799.71023,2581.95411 798.655172,2580.90251 798.655172,2579.61696 C798.655172,2578.33169 799.71023,2577.2798 801,2577.2798 Z M801,2578.44838 C800.355115,2578.44838 799.827586,2578.97418 799.827586,2579.61696 C799.827586,2580.25973 800.355115,2580.78554 801,2580.78554 C801.644599,2580.78554 802.172414,2580.25973 802.172414,2579.61696 C802.172414,2578.97418 801.644599,2578.44838 801,2578.44838 Z" id="2"></path>
        </g>
    </g>
</svg>